<?xml version="1.0" encoding="iso-8859-1"?>
<!-- Generator: Adobe Illustrator 19.0.0, SVG Export Plug-In . SVG Version: 6.00 Build 0)  -->
<svg version="1.1" id="Layer_1" xmlns="http://www.w3.org/2000/svg" xmlns:xlink="http://www.w3.org/1999/xlink" x="0px" y="0px"
	 viewBox="0 0 512 512" style="enable-background:new 0 0 512 512;" xml:space="preserve">
<g>
	<g>
		<path d="M361.739,278.261c-27.664,0-50.087,22.423-50.087,50.087s22.423,50.087,50.087,50.087H512V278.261H361.739z
			 M361.739,345.043c-9.22,0-16.696-7.475-16.696-16.696s7.475-16.696,16.696-16.696s16.696,7.475,16.696,16.696
			S370.96,345.043,361.739,345.043z"/>
	</g>
</g>
<g>
	<g>
		<path d="M361.739,244.87h83.478v-50.087c0-27.619-22.468-50.087-50.087-50.087H16.696C7.479,144.696,0,152.174,0,161.391v333.913
			C0,504.521,7.479,512,16.696,512H395.13c27.619,0,50.087-22.468,50.087-50.087v-50.087h-83.478
			c-46.032,0-83.478-37.446-83.478-83.478C278.261,282.316,315.707,244.87,361.739,244.87z"/>
	</g>
</g>
<g>
	<g>
		<path d="M461.913,144.696h-0.158c10.529,13.973,16.854,31.282,16.854,50.087v50.087H512v-50.087
			C512,167.164,489.532,144.696,461.913,144.696z"/>
	</g>
</g>
<g>
	<g>
		<path d="M478.609,411.826v50.087c0,18.805-6.323,36.114-16.854,50.087h0.158C489.532,512,512,489.532,512,461.913v-50.087H478.609
			z"/>
	</g>
</g>
<g>
	<g>
		<path d="M273.369,4.892c-6.521-6.521-17.087-6.521-23.609,0l-14.674,14.674l91.74,91.738h52.956L273.369,4.892z"/>
	</g>
</g>
<g>
	<g>
		<path d="M173.195,4.892c-6.521-6.522-17.086-6.522-23.608,0L43.174,111.304h236.435L173.195,4.892z"/>
	</g>
</g>
<g>
</g>
<g>
</g>
<g>
</g>
<g>
</g>
<g>
</g>
<g>
</g>
<g>
</g>
<g>
</g>
<g>
</g>
<g>
</g>
<g>
</g>
<g>
</g>
<g>
</g>
<g>
</g>
<g>
</g>
</svg>
